# AST/ASF file generated using VICON BodyLanguage
# -----------------------------------------------
:version 1.10
:name VICON
:units
  mass 1.0
  length 0.1
  angle deg
:documentation
   .ast/.asf automatically generated from VICON data using
   VICON BodyBuilder and BodyLanguage model FULLBODY5.MOD
:root
   order TX TY TZ RZ RY RX
   axis XYZ
   position 0 0 0  
   orientation 0 -0 0 
:bonedata
  begin
     id 1 
     name lhipjoint
     direction 0.969109 -0.218487 0.11442 
     length 0.544217 
     axis 0 -0 0  XYZ
  end
  begin
     id 2 
     name lfemur
     direction 0.173648 -0.984808 0  
     length 1.81499  
     axis 0 -0 10  XYZ
    dof rx ry rz
    limits (-180.0 180.0)
           (-180.0 180.0)
           (-180.0 180.0)
  end
  begin
     id 3 
     name ltibia
     direction 0.173515 -0.984831 0   
     length 1.55296   
     axis 0 -0 10   XYZ
    dof rx ry rz
    limits (-180.0 180.0)
           (-180.0 180.0)
           (-180.0 180.0)
  end
  begin
     id 4 
     name lfoot
     direction 7.36097e-012 -0.333012 0.942922   
     length 0.509062   
     axis -90 -1.73656e-015 10   XYZ
    dof rx ry rz
    limits (-180.0 180.0)
           (-180.0 180.0)
           (-180.0 180.0)
  end
  begin
     id 5 
     name ltoes
     direction 7.7847e-012 -4.42403e-011 1   
     length 0.249732   
     axis -90 -1.73656e-015 10   XYZ
    dof rx ry rz
    limits (-180.0 180.0)
           (-180.0 180.0)
           (-180.0 180.0)
  end
  begin
     id 6 
     name rhipjoint
     direction -0.966745 -0.226554 0.118645   
     length 0.524838  
     axis 0 -0 0  XYZ 
  end
  begin
     id 7 
     name rfemur
     direction -0.173648 -0.984808 0   
     length 1.84625   
     axis 0 -0 -10   XYZ
    dof rx ry rz
    limits (-180.0 180.0)
           (-180.0 180.0)
           (-180.0 180.0)
  end
  begin
     id 8 
     name rtibia
     direction -0.173714 -0.984796 0   
     length 1.577   
     axis 0 -0 -10   XYZ
    dof rx ry rz
    limits (-180.0 180.0)
           (-180.0 180.0)
           (-180.0 180.0)
 end
 begin
     id 9 
     name rfoot
     direction -0.0183819 -0.0406144 0.999006   
     length 0.490111  
     axis -90 1.73656e-015 -10   XYZ
    dof rx ry rz
    limits (-180.0 180.0)
           (-180.0 180.0)
           (-180.0 180.0)
  end
  begin
     id 10 
     name rtoes
     direction -7.79087e-012 -4.42375e-011 1   
     length 0.245053   
     axis -90 1.73656e-015 -10   XYZ
    dof rx ry rz
    limits (-180.0 180.0)
           (-180.0 180.0)
           (-180.0 180.0)
  end
  begin
     id 11 
     name lowerback
     direction -0.0664844 0.980601 0.184393   
     length 0.458979   
     axis 0 -0 0   XYZ
    dof rx ry rz
    limits (-180.0 180.0)
           (-180.0 180.0)
           (-180.0 180.0)
  end
  begin
     id 12 
     name upperback
     direction 0.0135995 0.999573 0.02588   
     length 0.463983   
     axis 0 -0 0   XYZ
    dof rx ry rz
    limits (-180.0 180.0)
           (-180.0 180.0)
           (-180.0 180.0)
  end
  begin
     id 13 
     name thorax
     direction 0.0468402 0.997311 -0.0563691   
     length 0.482746   
     axis 0 -0 0   XYZ
    dof rx ry rz
    limits (-180.0 180.0)
           (-180.0 180.0)
           (-180.0 180.0)
  end
  begin
     id 14 
     name lowerneck
     direction -0.00174311 0.988586 -0.150647   
     length 0.364383   
     axis 0 -0 0   XYZ
    dof rx ry rz
    limits (-180.0 180.0)
           (-180.0 180.0)
           (-180.0 180.0)
  end
  begin
     id 15 
     name upperneck
     direction -0.02653 0.999379 -0.0231908   
     length 0.361006   
     axis 0 -0 0   XYZ
    dof rx ry rz
    limits (-180.0 180.0)
           (-180.0 180.0)
           (-180.0 180.0)
  end
  begin
     id 16
     name head
     direction -0.00819207 0.999941 0.00714285  
     length 0.378714  
     axis 0 -0 0   XYZ
    dof rx ry rz
    limits (-180.0 180.0)
           (-180.0 180.0)
           (-180.0 180.0)
  end
  begin
     id 17 
     name lshoulderjoint
     direction 0.981627 -0.190809 0  
     length 0.612969  
     axis 0 -0 -11   XYZ
    dof rx ry rz
    limits (-180.0 180.0)
           (-180.0 180.0)
           (-180.0 180.0)
  end
  begin
     id 18 
     name lhumerus
     direction 0.48481 -0.87462 -9.72962e-027   
     length 1.19637   
     axis -180 5.14477e-009 -151   XYZ
    dof rx ry rz
    limits (-180.0 180.0)
           (-180.0 180.0)
           (-180.0 180.0)
  end
  begin
     id 19
     name lradius
     direction 0.48481 -0.87462 -2.35761e-026   
     length 0.637735   
     axis -180 5.14477e-009 -151   XYZ
    dof rx ry rz
    limits (-180.0 180.0)
           (-180.0 180.0)
           (-180.0 180.0)
  end
  begin
     id 20
     name lwrist
     direction 0.48481 -0.87462 -5.51856e-026   
     length 0.318868   
     axis -180 5.14477e-009 -151   XYZ
    dof rx ry rz
    limits (-180.0 180.0)
           (-180.0 180.0)
           (-180.0 180.0)
  end
  begin
     id 21 
     name lhand
     direction 0.477747 -0.861928 -0.169816   
     length 0.29526   
     axis -180 5.14477e-009 -151   XYZ
    dof rx ry rz
    limits (-180.0 180.0)
           (-180.0 180.0)
           (-180.0 180.0)
  end
  begin
     id 22 
     name rshoulderjoint
     direction -0.981627 -0.190809 0   
     length 0.572347  
     axis 0 -0 11   XYZ 
    dof rx ry rz
    limits (-180.0 180.0)
           (-180.0 180.0)
           (-180.0 180.0)
  end
  begin
     id 23 
     name rhumerus
     direction -0.48481 -0.87462 1.64836e-026  
     length 1.28846   
     axis 180 5.14477e-009 151   XYZ
    dof rx ry rz
    limits (-180.0 180.0)
           (-180.0 180.0)
           (-180.0 180.0)
  end
  begin
     id 24 
     name rradius
     direction -0.48481 -0.87462 2.86827e-026   
     length 0.62107   
     axis 180 5.14477e-009 151   XYZ
    dof rx ry rz
    limits (-180.0 180.0)
           (-180.0 180.0)
           (-180.0 180.0)
  end
  begin
     id 25 
     name rwrist
     direction -0.48481 -0.87462 5.20942e-026   
     length 0.310535   
     axis 180 5.14477e-009 151   XYZ
    dof rx ry rz
    limits (-180.0 180.0)
           (-180.0 180.0)
           (-180.0 180.0)
  end
  begin
     id 26
     name rhand
     direction -0.477664 -0.861515 -0.172133   
     length 0.291321   
     axis 180 5.14477e-009 151   XYZ
    dof rx ry rz
    limits (-180.0 180.0)
           (-180.0 180.0)
           (-180.0 180.0)
  end
:hierarchy
  begin
    root lhipjoint rhipjoint lowerback 
    lhipjoint lfemur
    lfemur ltibia
    ltibia lfoot
    lfoot ltoes
    rhipjoint rfemur
    rfemur rtibia
    rtibia rfoot
    rfoot rtoes
    lowerback upperback
    upperback thorax
    thorax lowerneck lshoulderjoint rshoulderjoint
    lowerneck upperneck
    upperneck head
    lshoulderjoint lhumerus
    lhumerus lradius
    lradius lwrist
    lwrist lhand
    rshoulderjoint rhumerus
    rhumerus rradius
    rradius rwrist
    rwrist rhand
  end

:FULLY-SPECIFIED
:DEGREES
1941
root -2.43498 3.59337 -0.46416 300.12 67.7809 69.5133
lowerback -19.3751 -0.0978809 -16.0171
upperback -6.51168 3.47232 -2.31882
thorax 2.86132 2.06095 7.24914
lowerneck 12.9271 -3.0612 2.1916
upperneck 2.30858 -3.65763 -3.68377
head -1.59424 -1.6415 -1.36085
rshoulderjoint -2.406 7.47929 -28.8898
rhumerus 350.135 -11.0192 -412.493
rradius 24.6847 -2.54444e-014 1.32788e-013
rwrist -8.06488e-014 9.62342 2.74206e-013
rhand 8.30116 -8.00946 35.1552
lshoulderjoint -2.03543 -5.87071 30.1604
lhumerus 350.695 27.3461 411.816
lradius 11.627 2.16278e-013 -7.45443e-014
lwrist 3.13878e-014 -8.89402 -2.28568e-013
lhand 12.6834 8.00266 -26.7789
rfemur -23.4341 11.3724 2.28113
rtibia 67.5584 1.86858e-014 1.19271e-014
rfoot -194.18 -43.6269 188.968
rtoes 9.70069e-014 1.62208e-013 -1.78111e-013
lfemur -37.0186 -2.67127 -22.6404
ltibia 22.616 -6.36111e-015 -3.18055e-015
lfoot -8.17063 11.0673 10.511
ltoes 1.62606e-013 -4.65032e-014 1.11319e-014
1942
root -2.38636 3.60445 -0.466867 299.524 68.039 70.0896
lowerback -19.1612 -0.257613 -15.9627
upperback -6.45283 3.20649 -2.24051
thorax 2.87535 1.92288 7.24701
lowerneck 13.1594 -2.98391 2.06616
upperneck 2.21171 -3.57181 -3.75805
head -1.66374 -1.59347 -1.36582
rshoulderjoint -2.44631 7.57206 -28.9632
rhumerus 350.06 -11.6297 -412.483
rradius 24.1402 4.57205e-014 3.49066e-013
rwrist -6.84657e-013 9.98957 7.12108e-013
rhand 8.50566 -8.26063 35.3934
lshoulderjoint -2.03552 -5.88149 30.1288
lhumerus 351.799 26.2054 412.317
lradius 11.1768 8.26944e-014 2.70347e-013
lwrist -4.20629e-013 -9.33151 4.27075e-013
lhand 12.7643 8.27909 -27.226
rfemur -25.0495 10.4929 2.19038
rtibia 68.8037 -1.59028e-015 -3.18055e-014
rfoot -191.789 -43.3429 185.817
rtoes -6.99722e-014 8.26944e-014 2.53848e-013
lfemur -35.5077 -3.10196 -22.7257
ltibia 21.4039 3.18055e-015 -3.18055e-014
lfoot -8.24618 10.6115 10.642
ltoes -9.20373e-014 1.98101e-013 6.75868e-015
1943
root -2.3386 3.61572 -0.469333 299.104 68.3072 70.5298
lowerback -18.8869 -0.399177 -15.9621
upperback -6.37314 2.96194 -2.15513
thorax 2.87113 1.79503 7.28449
lowerneck 13.2958 -2.89049 1.89408
upperneck 2.17718 -3.47164 -3.8367
head -1.69429 -1.53946 -1.36582
rshoulderjoint -2.46878 7.5878 -29.0828
rhumerus 350.004 -12.1803 -412.478
rradius 23.714 5.40694e-014 2.42517e-013
rwrist -3.10303e-013 10.2685 4.62223e-013
rhand 8.68384 -8.45688 35.5674
lshoulderjoint -2.00908 -5.82755 30.0596
lhumerus 352.913 24.6533 412.812
lradius 10.8684 2.16278e-013 2.20055e-013
lwrist -2.6388e-013 -9.82441 3.16333e-013
lhand 12.6784 8.86332 -27.8478
rfemur -26.6611 9.7141 2.07595
rtibia 69.7209 1.19271e-014 -1.74931e-014
rfoot -189.993 -43.3738 182.91
rtoes -3.65764e-014 2.48083e-013 1.6395e-013
lfemur -33.8827 -3.38002 -22.902
ltibia 19.9996 1.11319e-014 -3.65764e-014
lfoot -8.18969 10.1427 10.7306
ltoes -1.00784e-013 2.45897e-013 8.22969e-014
1944
root -2.29073 3.62702 -0.471716 298.903 68.6136 70.6978
lowerback -18.5725 -0.484212 -15.893
upperback -6.2734 2.77123 -2.08726
thorax 2.86116 1.69096 7.27448
lowerneck 13.4176 -2.82032 1.80548
upperneck 2.17159 -3.38977 -3.92812
head -1.71567 -1.49392 -1.38386
rshoulderjoint -2.47724 7.59299 -29.1292
rhumerus 349.912 -12.8188 -412.435
rradius 23.4011 5.64548e-014 5.64548e-014
rwrist 4.62625e-013 10.5402 -2.91163e-014
rhand 8.8344 -8.61197 35.6641
lshoulderjoint -1.99351 -5.77429 30.0837
lhumerus 353.925 23.3774 413.287
lradius 10.7843 3.84847e-013 8.13029e-014
lwrist 5.49246e-014 -10.124 2.58469e-014
lhand 12.7437 9.00314 -28.4559
rfemur -28.1715 9.07078 2.02865
rtibia 70.3003 1.37161e-014 -6.36111e-015
rfoot -188.508 -43.6248 180.14
rtoes 1.27222e-014 1.81292e-013 4.77083e-014
lfemur -32.0905 -3.55011 -23.0488
ltibia 18.3916 4.77083e-015 -2.22639e-014
lfoot -7.9913 9.66947 10.8322
ltoes -8.74653e-015 1.25706e-013 5.36719e-014
